<svg height="574" viewBox="0 0 862.84396 574" width="862.84396" xmlns="http://www.w3.org/2000/svg" xmlns:xlink="http://www.w3.org/1999/xlink"><linearGradient id="a" gradientUnits="userSpaceOnUse" x1="491.81417" x2="491.81417" y1="649.08953" y2="275.77695"><stop offset="0" stop-color="#808080" stop-opacity=".25"/><stop offset=".53514" stop-color="#808080" stop-opacity=".12"/><stop offset="1" stop-color="#808080" stop-opacity=".1"/></linearGradient><linearGradient id="b" x1="743.5555" x2="743.5555" xlink:href="#a" y1="708.81483" y2="647.80222"/><linearGradient id="c" x1="322.8031" x2="322.8031" xlink:href="#a" y1="543.16211" y2="385.06088"/><linearGradient id="d" x1="519.12134" x2="519.12134" xlink:href="#a" y1="123.67806" y2="29.31582"/><linearGradient id="e" x1="534.55674" x2="534.55674" xlink:href="#a" y1="145.48363" y2="51.12139"/><linearGradient id="f" x1="656.12983" x2="656.12983" xlink:href="#a" y1="119.51835" y2="65.39684"/><linearGradient id="g" x1="771.5139" x2="771.5139" xlink:href="#a" y1="162.36456" y2="18.04051"/><linearGradient id="h" x1="674.91931" x2="674.91931" xlink:href="#a" y1="262.90338" y2="202.95569"/><linearGradient id="i" x1="637.95851" x2="637.95851" xlink:href="#a" y1="255.27192" y2="180.96835"/><path d="m274 668.62224c0 18.88026-11.22431 25.47337-25.06914 25.47337-.32233 0-.64293-.00349-.96178-.0122-.64119-.01394-1.27715-.04181-1.9044-.08712-12.49625-.88338-22.20469-7.81624-22.20469-25.37405 0-18.16937 23.21526-41.09715 24.96633-42.79944l.00349-.00175c.06621-.0662.101-.0993.101-.0993s25.06919 24.01849 25.06919 42.90049z" fill="#3f3d56" transform="translate(-168.57802 -163)"/><path d="m248.01612 691.20677 9.17006-12.8116-9.19271 14.21769-.02439 1.47055c-.64119-.01394-1.27715-.04181-1.9044-.08712l.98792-18.889-.007-.14637.01743-.02787.09234-1.78419-9.21537-14.25424 9.24324 12.91614.02265.37811.74748-14.27172-7.88937-14.72815 7.98525 12.22094.7771-29.58709.00349-.101v.0993l-.12894 23.332 7.85283-9.25022-7.88597 11.25907-.20733 12.77851 7.33361-12.26276-7.365 14.14451-.115 7.10362 10.64584-17.07-10.68588 19.54938z" fill="#f2f2f2" transform="translate(-168.57802 -163)"/><path d="m592.51319 559.44847c-6.69828-24.31322-43.88872-42.23288-72.90771-46.85833v-11.679q.80456-.29971 1.60018-.61741a25.80449 25.80449 0 0 0 -1.39392-6.844 70.43338 70.43338 0 0 0 30.85826-24.40689 79.35794 79.35794 0 0 0 -15.66931-122.34034 15.57 15.57 0 0 0 -6.96213-28.68268 30.3914 30.3914 0 0 0 -47.31236-35.30576 30.38171 30.38171 0 0 1 44.65292 26.82984c0 .26671-.01578.52952-.0226.7946a30.38589 30.38589 0 1 0 -58.90437 11.367 15.194 15.194 0 0 0 -10.05686 22.25626 79.36055 79.36055 0 0 0 -19.353 126.21911 70.44524 70.44524 0 0 0 28.62208 22.68125v19.467c-29.3263 4.18973-67.94606 22.44217-74.69415 47.35455-5.88056 21.70968-12.15778 45.55164-15.281 59.54974 26.7709 18.81079 82.94473 29.85609 118.14907 29.85609 33.44821 0 88.11815-9.9692 114.10088-27.09764-2.81434-15.38086-9.28959-40.26968-15.42598-62.54339zm-53.62732-224.57933c0 .27668-.01144.55056-.026.82359a15.19713 15.19713 0 0 0 -12.61858-14.11309q.44136-.74742.84172-1.5208a15.19746 15.19746 0 0 1 11.80286 14.8103z" fill="url(#a)" transform="translate(-168.57802 -163)"/><path d="m493.7806 643.77286c32.49549 0 85.60824-9.68525 110.85087-26.32582-2.73418-14.94272-9.025-39.12268-14.98658-60.76192-7.59245-27.55885-55.51136-46.66462-84.097-46.66462h-27.54613c-28.67418 0-76.66223 19.21632-84.15911 46.89313-5.71305 21.0913-11.81148 44.25416-14.84578 57.85354 26.00839 18.275 80.58213 29.00569 114.78373 29.00569z" fill="#2b6cb0" transform="translate(-168.57802 -163)"/><circle cx="324.68013" cy="252.59476" fill="#f55f44" r="77.0921"/><path d="m303.86624 306.181h40.33461a6.035 6.035 0 0 1 6.035 6.035v41.24161a24.77978 24.77978 0 0 1 -24.77978 24.77978h-2.84507a24.77978 24.77978 0 0 1 -24.77978-24.77978v-41.24161a6.035 6.035 0 0 1 6.03502-6.035z" fill="#fda57d"/><path d="m495.03245 504.09727a67.98146 67.98146 0 0 0 25.336-4.88195 25.10935 25.10935 0 0 0 -25.04537-23.48378h-2.14778a25.1215 25.1215 0 0 0 -25.01388 22.85987 67.96813 67.96813 0 0 0 26.87103 5.50586z" opacity=".05" transform="translate(-168.57802 -163)"/><circle cx="324.81674" cy="266.34368" fill="#fda57d" r="68.20302"/><circle cx="301.71653" cy="177.14292" fill="#f55f44" r="14.76232"/><circle cx="354.20476" cy="177.14292" fill="#f55f44" r="14.76232"/><circle cx="326.32039" cy="152.53905" fill="#f55f44" r="29.52463"/><path d="m526.0633 322.10008a14.69253 14.69253 0 0 0 -8.23833 2.51185 14.75544 14.75544 0 0 1 13.19614 26.1412 14.754 14.754 0 0 0 -4.95781-28.65305z" fill="#f55f44" transform="translate(-168.57802 -163)"/><path d="m499.81918 281.09365a29.40313 29.40313 0 0 0 -18.77716 6.73953 29.52238 29.52238 0 0 1 32.63315 48.85092 29.52118 29.52118 0 0 0 -13.856-55.59045z" fill="#f55f44" transform="translate(-168.57802 -163)"/><path d="m444.05043 368.02729s8.20128 54.1285 111.5375 24.60386l-50.84793-44.28695z" fill="#f55f44" transform="translate(-168.57802 -163)"/><rect fill="#2b6cb0" height="30.23615" rx="14.2973" width="71.05496" x="45.22743" y="515.01206"/><path d="m763.71145 658.69733v-10.89511h-54.47554v50.38988a10.62275 10.62275 0 0 0 10.62273 10.62273h33.23008a10.62275 10.62275 0 0 0 10.62273-10.62273v-11.16749a14.16364 14.16364 0 1 0 0-28.32728zm0 22.87973v-17.43217a8.71609 8.71609 0 0 1 0 17.43217z" fill="url(#b)" opacity=".7" transform="translate(-168.57802 -163)"/><path d="m761.95876 660.40265a12.932 12.932 0 1 0 12.932 12.932 12.932 12.932 0 0 0 -12.932-12.932zm0 20.89019a7.95817 7.95817 0 1 1 7.95816-7.95817 7.95818 7.95818 0 0 1 -7.95816 7.95817z" fill="#2b6cb0" transform="translate(-168.57802 -163)"/><path d="m761.95876 660.40265a12.932 12.932 0 1 0 12.932 12.932 12.932 12.932 0 0 0 -12.932-12.932zm0 20.89019a7.95817 7.95817 0 1 1 7.95816-7.95817 7.95818 7.95818 0 0 1 -7.95816 7.95817z" opacity=".1" transform="translate(-168.57802 -163)"/><path d="m543.6422 487.45495h49.73854a0 0 0 0 1 0 0v45.95716a9.75 9.75 0 0 1 -9.75 9.75h-30.23854a9.75 9.75 0 0 1 -9.75-9.75v-45.95716a0 0 0 0 1 0 0z" fill="#2b6cb0"/><path d="m0 543.16211h645.6062v21.88496h-645.6062z" fill="#e0e0e0"/><rect fill="url(#c)" height="158.10123" opacity=".7" rx="14.5" width="274.55672" x="185.52474" y="385.06088"/><rect fill="#535461" height="155.18423" rx="26.83505" width="264.60901" x="190.49859" y="387.97787"/><circle cx="322.8031" cy="465.56999" fill="#fff" r="8.95294"/><path d="m27.35619 565.04706h590.89381v8.95294h-590.89381z" fill="#e0e0e0"/><path d="m27.35619 565.04706h590.89381v2.98431h-590.89381z" opacity=".1"/><path d="m753.00582 650.455v46.00814a9.699 9.699 0 0 1 -9.699 9.699h4.97385a9.699 9.699 0 0 0 9.699-9.699v-46.00814z" opacity=".1" transform="translate(-168.57802 -163)"/><path d="m722.03546 613.37321a2.90423 2.90423 0 0 0 -2.1965 1.11521c-.65244 1.18276.52985 2.51633 1.60877 3.329 1.99324 1.50147 4.09411 2.97632 5.449 5.072s1.7805 5.02022.29944 7.02867c-1.93388 2.62249-6.5477 3.18662-6.99422 6.4143-.28666 2.07216 1.50475 3.8403 3.31992 4.88008 4.48025 2.5664 10.25592 3.25107 13.50114 7.267 1.34247-2.76054 4.34521-4.35628 7.33829-5.03772s6.10287-.63057 9.13753-1.09285a3.15939 3.15939 0 0 0 2.52119-1.33731c.8483-1.72159-1.56943-3.78639-.735-5.51473.63512-1.31546 2.50084-1.2133 3.86329-1.74011 2.21844-.85777 3.13325-3.71287 2.50361-6.00651s-2.40819-4.08614-4.27841-5.55575c-5.0403-3.96061-11.10094-6.28982-17.2309-7.96517-2.851-.7792-6.19776-2.00112-9.159-2.11925-2.85861-.11407-6.1188.77911-8.94815 1.26314z" fill="#eee" transform="translate(-168.57802 -163)"/><path d="m428.36844 0h434.47552v297.66835h-434.47552z" fill="#535461" opacity=".1"/><rect fill="url(#d)" height="94.36224" opacity=".5" rx="4.5" width="102.27585" x="467.98342" y="29.31582"/><rect fill="#f5f5f5" height="92.07386" rx="4.5" width="99.91657" x="469.23182" y="30.04743"/><rect fill="#2b6cb0" height="15.16536" rx="4.5" width="16.85039" x="476.93201" y="45.21279"/><g fill="#e0e0e0"><rect height="1.68504" rx=".79678" width="66.98549" x="498.83752" y="45.21279"/><rect height="1.68504" rx=".79678" width="66.98549" x="498.83752" y="50.2679"/><rect height="1.68504" rx=".79678" width="90.57604" x="475.24697" y="68.61611"/><rect height="1.68504" rx=".79678" width="90.57604" x="475.24697" y="73.67123"/><rect height="1.68504" rx=".79678" width="90.57604" x="475.24697" y="80.41139"/><rect height="1.68504" rx=".79678" width="52.23622" x="475.24697" y="85.46651"/><rect height="1.68504" rx=".79678" width="90.57604" x="475.24697" y="92.19033"/><rect height="1.68504" rx=".79678" width="90.57604" x="475.24697" y="97.24545"/><rect height="1.68504" rx=".79678" width="90.57604" x="475.24697" y="103.98561"/><rect height="1.68504" rx=".79678" width="52.23622" x="475.24697" y="109.04073"/></g><rect fill="url(#e)" height="94.36224" opacity=".5" rx="4.5" width="102.27585" x="483.41882" y="51.12139"/><rect fill="#fff" height="92.07386" rx="4.5" width="99.91657" x="484.66722" y="51.853"/><rect fill="#2b6cb0" height="15.16536" rx="4.5" width="16.85039" x="492.36741" y="67.01835"/><rect fill="#e0e0e0" height="1.68504" rx=".79678" width="66.98549" x="514.27293" y="67.01835"/><rect fill="#e0e0e0" height="1.68504" rx=".79678" width="66.98549" x="514.27293" y="72.07347"/><rect fill="#e0e0e0" height="1.68504" rx=".79678" width="90.57604" x="490.68237" y="90.42168"/><rect fill="#e0e0e0" height="1.68504" rx=".79678" width="90.57604" x="490.68237" y="95.4768"/><rect fill="#e0e0e0" height="1.68504" rx=".79678" width="90.57604" x="490.68237" y="102.21696"/><rect fill="#e0e0e0" height="1.68504" rx=".79678" width="52.23622" x="490.68237" y="107.27207"/><rect fill="#e0e0e0" height="1.68504" rx=".79678" width="90.57604" x="490.68237" y="113.9959"/><rect fill="#e0e0e0" height="1.68504" rx=".79678" width="90.57604" x="490.68237" y="119.05102"/><rect fill="#e0e0e0" height="1.68504" rx=".79678" width="90.57604" x="490.68237" y="125.79118"/><rect fill="#e0e0e0" height="1.68504" rx=".79678" width="52.23622" x="490.68237" y="130.8463"/><path d="m627.96455 65.39684h56.33056v54.12152h-56.33056z" fill="url(#f)"/><path d="m628.84817 66.72226h54.56333v51.69157h-54.56333z" fill="#f5f5f5"/><path d="m646.7414 97.42794h19.66047v2.65085h-19.66047z" fill="#2b6cb0" opacity=".6"/><path d="m639.34111 102.28783h33.57743v2.65085h-33.57743z" fill="#bdbdbd"/><path d="m710.09632 18.04051h122.83516v144.32405h-122.83516z" fill="url(#g)" opacity=".5"/><path d="m713.8714 20.36363h116.44657v138.80663h-116.44657z" fill="#fff"/><path d="m731.29482 81.26363h81.8901v3.48469h-81.8901z" fill="#e0e0e0"/><path d="m731.29482 104.20447h81.8901v3.48469h-81.8901z" fill="#e0e0e0"/><path d="m731.29482 110.30267h81.8901v3.48469h-81.8901z" fill="#e0e0e0"/><path d="m731.29482 98.10628h34.55646v3.48469h-34.55646z" fill="#e0e0e0"/><path d="m787.34018 98.10628h25.84475v3.48469h-25.84475z" fill="#3ad29f" opacity=".6"/><path d="m760.04348 124.53181h25.84475v3.48469h-25.84475z" fill="#2b6cb0"/><path d="m638.42634 202.95569h72.98595v59.94768h-72.98595z" fill="url(#h)" opacity=".5"/><path d="m639.27666 204.08946h71.14358v57.82188h-71.14358z" fill="#f2f2f2"/><path d="m639.27666 204.08946h71.14358v12.89655h-71.14358z" fill="#2b6cb0"/><path d="m639.27666 204.08946h71.14358v12.89655h-71.14358z" opacity=".1"/><path d="m644.94547 221.66277h59.80596v7.51118h-59.80596z" fill="#e0e0e0"/><path d="m644.94547 234.84276h43.64985v2.55097h-43.64985z" fill="#e0e0e0"/><path d="m644.94547 239.23609h28.34406v2.55097h-28.34406z" fill="#e0e0e0"/><path d="m644.94547 243.62942h37.41416v2.55097h-37.41416z" fill="#e0e0e0"/><path d="m644.94547 248.02275h43.64985v2.55097h-43.64985z" fill="#e0e0e0"/><path d="m644.94547 252.41608h14.59719v2.55097h-14.59719z" fill="#e0e0e0"/><path d="m592.72642 180.96835h90.46417v74.30358h-90.46417z" fill="url(#i)" opacity=".5"/><path d="m593.78038 182.37361h88.1806v71.6687h-88.1806z" fill="#fff"/><path d="m593.78038 182.37361h88.1806v15.98493h-88.1806z" fill="#2b6cb0"/><path d="m600.80672 204.15528h74.12792v9.3099h-74.12792z" fill="#f5f5f5"/><path d="m600.80672 220.49152h54.10284v3.16185h-54.10284z" fill="#e0e0e0"/><path d="m600.80672 225.93694h35.13171v3.16185h-35.13171z" fill="#e0e0e0"/><path d="m600.80672 231.38236h46.37386v3.16185h-46.37386z" fill="#e0e0e0"/><path d="m600.80672 236.82777h54.10284v3.16185h-54.10284z" fill="#e0e0e0"/><path d="m600.80672 242.27319h18.09283v3.16185h-18.09283z" fill="#e0e0e0"/><path d="m604.67121 207.31713h21.07903v2.81054h-21.07903z" fill="#69f0ae"/><circle cx="469.37316" cy="366.07194" fill="#535461" opacity=".1" r="12.21417"/><circle cx="492.05662" cy="326.8121" fill="#535461" opacity=".1" r="12.21417"/></svg>