<svg height="507.75418" viewBox="0 0 785.16603 507.75418" width="785.16603" xmlns="http://www.w3.org/2000/svg"><path d="m755.42286 538.5541c-80.77393.0039-151.05273-60.252-161.43506-142.4375l1.98438-.251c10.2539 81.1709 79.67675 140.68359 159.45215 140.68848a161.36228 161.36228 0 0 0 20.27343-1.2793c87.98584-11.11524 150.52442-91.73926 139.40918-179.7251l1.98438-.251c11.25342 89.07959-52.063 170.70752-141.14258 181.96045a163.74252 163.74252 0 0 1 -20.52588 1.29497z" fill="#3f3d56" transform="translate(-207.41698 -196.12291)"/><path d="m819.834 276.76113a56.086 56.086 0 1 1 104.91651-39.6875l-1.8711.708a54.08546 54.08546 0 1 0 -101.17431 38.27149z" fill="#3f3d56" transform="translate(-207.41698 -196.12291)"/><path d="m982.30624 374.65269h-101.66506a10.28839 10.28839 0 0 1 -10.27672-10.27678v-134.61612a10.28839 10.28839 0 0 1 10.27672-10.27679h101.66506a10.28841 10.28841 0 0 1 10.27676 10.27679v134.61612a10.28841 10.28841 0 0 1 -10.27676 10.27678z" fill="#e6e6e6" transform="translate(-207.41698 -196.12291)"/><path d="m941.91309 366.5873h-54.12548a9.63563 9.63563 0 0 1 -9.625-9.62451v-119.79a9.63563 9.63563 0 0 1 9.625-9.62451h87.37256a9.63521 9.63521 0 0 1 9.62451 9.62451v86.54346a42.91981 42.91981 0 0 1 -42.87159 42.87105z" fill="#fff" transform="translate(-207.41698 -196.12291)"/><path d="m966.444 287.62093h-69.94055a2.281 2.281 0 1 1 0-4.562h69.94055a2.281 2.281 0 1 1 0 4.562z" fill="#e4e4e4" transform="translate(-207.41698 -196.12291)"/><path d="m966.444 296.63427h-69.94055a2.28111 2.28111 0 0 1 0-4.56221h69.94055a2.2811 2.2811 0 1 1 0 4.56221z" fill="#e4e4e4" transform="translate(-207.41698 -196.12291)"/><path d="m926.821 305.6476h-30.31755a2.2811 2.2811 0 0 1 0-4.56221h30.31755a2.2811 2.2811 0 0 1 0 4.56221z" fill="#e4e4e4" transform="translate(-207.41698 -196.12291)"/><path d="m966.444 250.81305h-69.94055a2.281 2.281 0 1 1 0-4.562h69.94055a2.281 2.281 0 1 1 0 4.562z" fill="#e4e4e4" transform="translate(-207.41698 -196.12291)"/><path d="m966.444 259.82638h-69.94055a2.2811 2.2811 0 0 1 0-4.5622h69.94055a2.2811 2.2811 0 1 1 0 4.5622z" fill="#e4e4e4" transform="translate(-207.41698 -196.12291)"/><path d="m926.821 268.83972h-30.31755a2.28111 2.28111 0 0 1 0-4.56221h30.31755a2.28111 2.28111 0 0 1 0 4.56221z" fill="#e4e4e4" transform="translate(-207.41698 -196.12291)"/><path d="m966.444 325.717h-69.94055a2.281 2.281 0 1 1 0-4.562h69.94055a2.281 2.281 0 1 1 0 4.562z" fill="#2b6cb0" transform="translate(-207.41698 -196.12291)"/><path d="m907.444 334.73033h-10.94055a2.28111 2.28111 0 0 1 0-4.56221h10.94055a2.2811 2.2811 0 1 1 0 4.56221z" fill="#2b6cb0" transform="translate(-207.41698 -196.12291)"/><path d="m926.821 343.74366h-30.31755a2.2811 2.2811 0 0 1 0-4.56221h30.31755a2.2811 2.2811 0 0 1 0 4.56221z" fill="#2b6cb0" transform="translate(-207.41698 -196.12291)"/><path d="m595.50392 370.14a94.03111 94.03111 0 0 1 175.89794-66.538l-1.87109.708a92.03055 92.03055 0 1 0 -172.15577 65.122z" fill="#3f3d56" transform="translate(-207.41698 -196.12291)"/><circle cx="562.90685" cy="11.14083" fill="#e6e6e6" r="9.54602"/><circle cx="575.90685" cy="286.14083" fill="#e6e6e6" r="9.54602"/><circle cx="330.90685" cy="59.14083" fill="#e6e6e6" r="9.54602"/><g transform="translate(-207.41698 -196.12291)"><path d="m670.11717 647.51092h-218.533a22.11531 22.11531 0 0 1 -22.09017-22.09033v-289.36259a22.1153 22.1153 0 0 1 22.09021-22.09033h218.533a22.11533 22.11533 0 0 1 22.09029 22.09033v289.36259a22.11533 22.11533 0 0 1 -22.09033 22.09033z" fill="#e6e6e6"/><path d="m586.70948 629.6h-119.76416a20.1369 20.1369 0 0 1 -20.11377-20.11425v-257.49318a20.13649 20.13649 0 0 1 20.11377-20.11377h187.81055a20.13649 20.13649 0 0 1 20.11377 20.11377v189.44727a88.26013 88.26013 0 0 1 -88.16016 88.16016z" fill="#fff"/><path d="m636.02059 381.31282h-150.33984a4.90308 4.90308 0 1 1 0-9.80615h150.33984a4.90308 4.90308 0 1 1 0 9.80615z" fill="#2b6cb0"/><path d="m636.02059 400.68733h-150.33984a4.90332 4.90332 0 0 1 0-9.80664h150.33984a4.90332 4.90332 0 1 1 0 9.80664z" fill="#2b6cb0"/><path d="m550.84945 420.06184h-65.1687a4.90332 4.90332 0 0 1 0-9.80664h65.1687a4.90332 4.90332 0 1 1 0 9.80664z" fill="#2b6cb0"/><path d="m636.02059 460.63927h-150.33984a4.90308 4.90308 0 1 1 0-9.80615h150.33984a4.90308 4.90308 0 1 1 0 9.80615z" fill="#e4e4e4"/><path d="m636.02059 480.01378h-150.33984a4.90332 4.90332 0 0 1 0-9.80664h150.33984a4.90332 4.90332 0 0 1 0 9.80664z" fill="#e4e4e4"/><path d="m550.84945 499.38829h-65.1687a4.90332 4.90332 0 0 1 0-9.80664h65.1687a4.90332 4.90332 0 1 1 0 9.80664z" fill="#e4e4e4"/><path d="m636.02059 539.96572h-150.33984a4.90308 4.90308 0 1 1 0-9.80615h150.33984a4.90308 4.90308 0 1 1 0 9.80615z" fill="#e4e4e4"/><path d="m636.02059 559.34023h-150.33984a4.90332 4.90332 0 0 1 0-9.80664h150.33984a4.90332 4.90332 0 0 1 0 9.80664z" fill="#e4e4e4"/><path d="m550.84945 578.71475h-65.1687a4.90333 4.90333 0 0 1 0-9.80665h65.1687a4.90333 4.90333 0 0 1 0 9.80665z" fill="#e4e4e4"/><path d="m838.49266 432.65269h-110.66975a11.19966 11.19966 0 0 1 -11.187-11.187v-146.53937a11.19967 11.19967 0 0 1 11.187-11.187h110.66975a11.19968 11.19968 0 0 1 11.187 11.187v146.53936a11.19968 11.19968 0 0 1 -11.187 11.18701z" fill="#e6e6e6"/><path d="m797.46681 423.82851h-61.86475a10.4446 10.4446 0 0 1 -10.43262-10.43262v-130.39989a10.4447 10.4447 0 0 1 10.43262-10.43311h95.11133a10.4448 10.4448 0 0 1 10.4331 10.43311v97.15332a43.72886 43.72886 0 0 1 -43.67968 43.67919z" fill="#fff"/><path d="m821.22544 297.84431h-76.1353a2.483 2.483 0 1 1 0-4.966h76.1353a2.483 2.483 0 1 1 0 4.966z" fill="#e4e4e4"/><path d="m821.22544 307.656h-76.1353a2.48315 2.48315 0 0 1 0-4.96629h76.1353a2.48315 2.48315 0 0 1 0 4.96629z" fill="#e4e4e4"/><path d="m778.093 317.46764h-33.00286a2.48315 2.48315 0 0 1 0-4.96629h33.00286a2.48315 2.48315 0 0 1 0 4.96629z" fill="#e4e4e4"/><path d="m821.22544 338.01691h-76.1353a2.483 2.483 0 1 1 0-4.966h76.1353a2.483 2.483 0 1 1 0 4.966z" fill="#2b6cb0"/><path d="m801.22544 347.82858h-56.1353a2.48314 2.48314 0 0 1 0-4.96629h56.1353a2.48314 2.48314 0 0 1 0 4.96629z" fill="#2b6cb0"/><path d="m778.093 357.64024h-33.00286a2.48315 2.48315 0 0 1 0-4.96629h33.00286a2.48315 2.48315 0 0 1 0 4.96629z" fill="#2b6cb0"/><path d="m821.22544 378.18951h-76.1353a2.483 2.483 0 1 1 0-4.966h76.1353a2.483 2.483 0 1 1 0 4.966z" fill="#e4e4e4"/><path d="m821.22544 388.00118h-76.1353a2.48314 2.48314 0 0 1 0-4.96629h76.1353a2.48314 2.48314 0 0 1 0 4.96629z" fill="#e4e4e4"/><path d="m778.093 397.81284h-33.00286a2.48315 2.48315 0 0 1 0-4.96629h33.00286a2.48315 2.48315 0 0 1 0 4.96629z" fill="#e4e4e4"/><path d="m336.81243 482.99824a8.56625 8.56625 0 0 0 -1.70826-13.02377l7.02037-29.621-14.85846 5.42843-4.3887 27.29637a8.61267 8.61267 0 0 0 13.935 9.92z" fill="#ffb8b8"/><path d="m372.5436 358.87081-5.96311 15.33373s2.55562 15.33372-1.70375 18.74122-2.55562 3.40749-2.55562 5.96311a13.10385 13.10385 0 0 1 -5.11124 9.37061c-3.4075 2.55562-18.74122 54.51991-18.74122 54.51991h-15.33373a48.04248 48.04248 0 0 0 0-11.92623c-.85187-5.96311 2.55562-21.29684 4.25937-23.85246s0-5.96311 0-11.07436 3.4075-7.66686 3.4075-16.18559 10.22248-74.96488 9.3706-82.63174 8.51874-14.48185 8.51874-14.48185h8.51874z" fill="#2b6cb0"/></g><path d="m201.206 195.271 14.173 63.25-90.823-5.65 24.697-62.117z" fill="#ffb8b8"/><path d="m210.65168 629.11708a96.90107 96.90107 0 0 0 12.51 27.53c12.48 18.87 30.34 33.3 49.97 44.85 1.36.81 2.74 1.6 4.12 2.38h13.77l.48-1.1v-.01l.55993-1.27.07007-.15.03.15.55 2.38h6.75989c.55994-.79 1.11-1.58 1.65-2.38.79-1.17 1.55-2.35 2.27-3.55a57.63638 57.63638 0 0 0 3.39991-6.52c.12011-.25.22009-.5.32006-.75l-.45-.49 1.86988-8.18-3.75989-.62 4.12-12.71c-.15-.47-.32007-.94-.5-1.41-2.31006-5.85-6.65-10.22-11.8-13.89-5.3-3.79-11.47-6.83-17.13989-9.99-2.66015-1.49-5.28-3.06-7.83008-4.72v-.01q-4.89-3.16508-9.49-6.77a1.42688 1.42688 0 0 1 -.15-.11 1.06926 1.06926 0 0 1 -.12-.1 140.90216 140.90216 0 0 1 -34.31005-38.93.0098.0098 0 0 1 -.01-.01c-.29993-.48-.57984-.96-.85987-1.44995v-.01a136.25522 136.25522 0 0 1 -9.41-19.65v-.01c-.20008-.5-.38-1-.57-1.5q-.39.66-.75 1.32a.0098.0098 0 0 0 -.01.01c-9.69999 17.34994-10.62004 38.24997-5.28996 57.66995z" fill="#f0f0f0" transform="translate(-207.41698 -196.12291)"/><path d="m215.94172 571.4471a121.36474 121.36474 0 0 0 2.86987 27.54 118.54084 118.54084 0 0 0 3.36011 12.24 121.345 121.345 0 0 0 10.12989 22.6c.23.39.45007.77.69006 1.15v.01a102.347 102.347 0 0 0 5.75 8.66 47.72179 47.72179 0 0 0 11.4 11.46 30.08866 30.08866 0 0 0 11.98 4.63c.8.15 1.62.26 2.45.36 3.31006.39 6.73.54 10.01 1.24a21.849 21.849 0 0 1 4.82007 1.55c5.28 2.45 8.25 7.58 9.55 13.06.23.96.40991 1.93.54993 2.9 1.09 7.44995-.11 15.19.51 22.65.06994.79.16 1.59.2699 2.38h.74011l.48-1.1v-.01c-.04993-.42-.09-.84-.13-1.27a96.29458 96.29458 0 0 1 -.09008-11.01c.04-1.65.07006-3.31.05-4.97-.02-1.33-.06994-2.66-.16992-3.98v-.01c-.07007-.82-.15-1.63-.26-2.44a31.586 31.586 0 0 0 -1.82007-7.25 18.15173 18.15173 0 0 0 -10.31994-10.68 26.99258 26.99258 0 0 0 -4.47009-1.25c-3.34986-.64-6.80994-.8-10.17994-1.22-.36-.04-.72-.09-1.07006-.15-.45-.07-.8899-.15-1.32984-.23005a28.66621 28.66621 0 0 1 -12.16015-5.26995 51.90377 51.90377 0 0 1 -10.98-11.92005c-1.63989-2.35-3.2-4.75-4.6499-7.22a.0098.0098 0 0 0 -.01-.01c-.07007-.12-.14-.23-.21-.35l-.01-.02a119.57155 119.57155 0 0 1 -13.46008-34.17c-.09-.44-.19006-.88-.28992-1.32a120.88726 120.88726 0 0 1 -2.67-26.4v-.01c0-.42.00989-.82995.0199-1.25.02-.86-1.30994-1.05-1.32984-.19-.01.42-.02.84-.01 1.26a.0098.0098 0 0 0 -.01001.01005z" fill="#fff" transform="translate(-207.41698 -196.12291)"/><path d="m233.56252 634.706a18.01811 18.01811 0 0 1 -22.69431-5.41582c-.50869-.69934.55416-1.52268 1.06353-.82241a16.68437 16.68437 0 0 0 21.12073 4.9947c.76923-.39533 1.27488.85047.51005 1.24353z" fill="#fff" transform="translate(-207.41698 -196.12291)"/><path d="m261.58327 658.70548a34.72846 34.72846 0 0 0 -1.22951-25.27921c-.35484-.78953.88912-1.29863 1.24354-.51005a36.12283 36.12283 0 0 1 1.22593 26.30791c-.27855.82057-1.517.29746-1.24-.51865z" fill="#fff" transform="translate(-207.41698 -196.12291)"/><path d="m219.55525 598.14978a10.1991 10.1991 0 0 0 7.02237-6.65924c.268-.8237 1.50625-.29968 1.24.51865a11.429 11.429 0 0 1 -7.75229 7.38413.69462.69462 0 0 1 -.87679-.36675.67544.67544 0 0 1 .36674-.87679z" fill="#fff" transform="translate(-207.41698 -196.12291)"/><path d="m271.62165 638.65712v.01a131.24641 131.24641 0 0 0 2.66993 21.24v.01c.08007.48.19006.95.29 1.42a184.49666 184.49666 0 0 0 10.11011 31.61q1.78491 4.32 3.74 8.55c.35987.8.73 1.59 1.10987 2.38h1.4801l.48-1.1v-.01l.55993-1.27.07007-.15.03.15.55 2.38h14.29993l2.77991-2.38 4.05-3.47-5.65991-6.18-.93-1.02-.14-.15-.45-.49 1.86988-8.18-3.75989-.62 4.12-12.71 1.95-6.01.49-1.51 2.8501-8.79 8.59986 1.61005 1.40014-4.9a135.98836 135.98836 0 0 1 -6.42-18.41c-.01-.05-.03-.09-.04-.13995a141.58279 141.58279 0 0 1 -4.0199-51.96v-.01c.05994-.56.12988-1.13.21-1.68v-.02a133.63121 133.63121 0 0 1 4.32-21.34c.14-.53.29993-1.05.45007-1.57-.46008.2-.91.39-1.37012.59l-.01.00994h-.02c-.73.32-1.46.66-2.16993 1.02-17.06005 8.29-29.61 23.85-36.74 41.79-.02.05-.04.09-.06006.14a96.39338 96.39338 0 0 0 -6.56994 29.43 114.8706 114.8706 0 0 0 -.12015 11.72996z" fill="#f0f0f0" transform="translate(-207.41698 -196.12291)"/><path d="m297.5716 703.87709h1.58008c.5-.81 1.04-1.6 1.58-2.38q1.29-1.81494 2.66-3.55c.79-1 1.58-1.99 2.37-2.98.81994-1.03 1.63-2.06 2.42-3.12l-.93-1.02c-.15.2-.29993.4-.46008.6-2.55994 3.37-5.32984 6.61005-7.7 10.07-.53001.78003-1.04001 1.57-1.52 2.38z" fill="#fff" transform="translate(-207.41698 -196.12291)"/><path d="m319.01358 554.5059c-.26.33-.53.67-.78 1.01q-2.925 3.795-5.53 7.83a117.99176 117.99176 0 0 0 -8.22 14.85c-.19.4-.38.81-.56 1.22a119.26343 119.26343 0 0 0 -9.84 35.44c-.02.12-.03.23-.04.35q-.49492 4.29-.64 8.61a51.7827 51.7827 0 0 0 1.59 16.12c.2.69.42 1.37.66 2.03a27.34442 27.34442 0 0 0 2.25 4.65 27.9227 27.9227 0 0 0 2.14 3.09c.47.6.96 1.19 1.48 1.76.3.33.61.66.92.99.26.25.51.51.77.76 2.7 2.62 5.68 5.05 8.12 7.94l-.49 1.50994c-2.35-2.98-5.37994-5.45-8.11-8.05a37.89748 37.89748 0 0 1 -4.66-5.28c-.18-.26-.37-.52-.54-.79a26.749 26.749 0 0 1 -2.38995-4.29c-.34-.75-.65-1.52-.93-2.32a47.89267 47.89267 0 0 1 -2.2-16 103.41482 103.41482 0 0 1 .62-10.39c.04-.45.09-.88995.15-1.34a121.6383 121.6383 0 0 1 5.52-24.14 122.65932 122.65932 0 0 1 13.76-28.18q2.475-3.765 5.25-7.35c.24-.33.49-.65.75-.98.52991-.67994 1.47992.27007.94995.95006z" fill="#fff" transform="translate(-207.41698 -196.12291)"/><path d="m293.25959 615.67227a18.01812 18.01812 0 0 1 -14.85944-17.98776.67262.67262 0 0 1 1.34431-.01633 16.68438 16.68438 0 0 0 13.85654 16.70412c.8522.14748.50587 1.44662-.34145 1.3z" fill="#fff" transform="translate(-207.41698 -196.12291)"/><path d="m301.18326 651.70492a34.72845 34.72845 0 0 0 14.23814-20.92427c.192-.844 1.49177-.50157 1.3.34145a36.12279 36.12279 0 0 1 -14.8604 21.74349c-.71645.48746-1.39034-.67584-.67778-1.16067z" fill="#fff" transform="translate(-207.41698 -196.12291)"/><path d="m304.085 578.05083a10.19912 10.19912 0 0 0 9.6163-1.08909c.70992-.49631 1.38308.66759.67778 1.16066a11.42893 11.42893 0 0 1 -10.63552 1.2284.69462.69462 0 0 1 -.47927-.82071.67543.67543 0 0 1 .82071-.47926z" fill="#fff" transform="translate(-207.41698 -196.12291)"/><path d="m186.082 487.193 10.202-.001 4.854-39.351h-15.058z" fill="#ffb8b8"/><path d="m390.04418 678.28261 16.12758-.9626v6.90976l15.33294 10.58948a4.3161 4.3161 0 0 1 -2.45255 7.86784h-19.20049l-3.30949-6.83481-1.2922 6.83481h-7.23935z" fill="#2f2e41" transform="translate(-207.41698 -196.12291)"/><path d="m89.657 482.117 9.971 2.162 13.085-37.428-14.715-3.191z" fill="#ffb8b8"/><path d="m294.76484 672.58892 15.96506 2.47838-1.4649 6.7527 12.7394 13.59941a4.3161 4.3161 0 0 1 -4.06481 7.169l-18.764-4.07057-1.78527-7.38107-2.71182 6.40549-7.07479-1.53476z" fill="#2f2e41" transform="translate(-207.41698 -196.12291)"/><path d="m225.22163 702.68709a1.18647 1.18647 0 0 0 1.19006 1.19h280.29a1.19 1.19 0 0 0 0-2.38h-280.29a1.18651 1.18651 0 0 0 -1.19006 1.19z" fill="#ccc" transform="translate(-207.41698 -196.12291)"/><path d="m425.11476 507.53416c-7.16 39.35-8.95 56.34-8.95 56.34s5.37 6.26 1.79 9.84 0 10.73 0 10.73l-9.37176 74.83845-2 11-18.76824-2.64847 2.76824-10.35153-4.81823-71.93845s-3.58-7.16-1.79-8.95-1.79-12.52-1.79-12.52l-4.47-84.96-27.73 93.01s2.68994 3.58 0 6.26c-2.68 2.68-8.04 16.1-8.04 16.1l-20.36177 53.99845-4 8-2.12823-1.00846-9.36-1.76-1.72-.31994-3.06-.58-1.97-.37-.67005-.12-3.24-.61005.98-4.35 7.16821-10.88156 7.29175-53.36844.32-1.43.34-1.51s-1.79-4.47.88995-7.16a6.98826 6.98826 0 0 0 1.79-6.26 2.44073 2.44073 0 0 1 -.24-.3 3.71248 3.71248 0 0 1 -.64-1.46c-.24-1.12-.03-2.69 1.78-4.5a7.63531 7.63531 0 0 0 1.27-1.82c2.72-5.15 4.09-16.06 4.09-16.06s2.42-86.41 10.34-99.61c.42-.69 8.82779-13.9365 9.2678-14.20652 8.94-5.36 78.71357 1.04342 78.71357 1.04342s4.21864 11.33309 4.40864 12.51308c1.03018 6.63002 7.98013 32.00002 1.91012 65.38002z" fill="#2f2e41" transform="translate(-207.41698 -196.12291)"/><path d="m497.51926 315.42181a8.56624 8.56624 0 0 1 -11.04858 7.10391l-18.08777 24.48513-5.4475-14.85148 18.01159-20.97461a8.61267 8.61267 0 0 1 16.57223 4.23705z" fill="#ffb8b8" transform="translate(-207.41698 -196.12291)"/><path d="m332.47706 419.1371c-1.6582 0-2.6001-.32519-2.96484-1.02246-.53516-1.02343.39355-2.36035 1.46875-3.90918a11.959 11.959 0 0 0 1.86328-3.35644c.64306-2.57227 4.9834-67.54688 2.3872-80.5293-.60058-3.00391-.08349-6.85449 1.53614-11.44434 4.42431-12.53515 10.46338-16.38769 22.49414-24.06152q1.46484-.93457 3.05078-1.95215c1.36767-.8789 1.2915-3.793 1.21094-6.8789-.08936-3.42969-.18213-6.97657 1.498-9.19336l.10938-.14453.17627-.041c4.064-.93945 17.73242-2.68359 25.82715.0127l.11181.03808.0835.083c1.92285 1.92285 2.09814 5.64746 2.26758 9.249.13867 2.957.27 5.749 1.35791 6.96192 8.31689 9.2705 17.74951 9.08984 17.84521 9.08789l.46729-.01367.04638.46484c3.61768 36.79785 9.44971 92.33789 10.689 94.52344a.6524.6524 0 0 1 .02051.67578c-1.81933 3.39942-85.29638 21.4502-91.54638 21.4502z" fill="#2b6cb0" transform="translate(-207.41698 -196.12291)"/><circle cx="179.38366" cy="45.39742" fill="#ffb8b8" r="24.66737"/><path d="m403.28154 286.61107c-1.16932-1.66977-7.1-22.06742-9.69852-28.32846-.26587 1.34556-3.24581 6.56249-3.31559 7.95076l-.02586.51428-.51068.06617c-.76811.098-18.91063 2.30014-28.35241-8.406-5.594-6.34164-6.86254-15.85379-3.77563-28.27783a4.92479 4.92479 0 0 1 -1.58977-.61233 6.82673 6.82673 0 0 1 -2.91007-4.95818l-.52271.14015c-2.66225.71819-5.665 1.66857-7.60479 3.86225-2.1594 2.43969-2.54376 5.75457-2.95157 9.26374a40.03684 40.03684 0 0 1 -.791 4.981c-1.31549 5.30705-5.01894 10.27787-11.00749 14.7747-6.02886 4.52751-12.17561 7.11758-18.27 7.69682-7.19818.68692-14.14011-1.67819-18.56356-6.32118-4.93292-5.17653-6.22315-13.141-3.06887-18.9371l.50767-.93354.55759.90466c2.80782 4.557 8.94314 7.01833 14.92147 5.98375 5.126-.88661 10.2075-4.14134 14.30854-9.16449 3.74375-4.58525 6.326-10.00058 8.82344-15.23786 2.54014-5.3251 5.1663-10.83186 8.94915-15.50433 4.26706-5.27036 9.59216-8.71216 14.99485-9.6926 3.93443-.711 7.4454.095 9.63367 2.21593a9.17525 9.17525 0 0 1 2.57743 5.91157 7.41279 7.41279 0 0 1 4.05112.23278 7.5157 7.5157 0 0 1 4.63939 6.14916c7.9272-4.16962 18.4186-3.49112 23.84476-.36271 2.27187 1.31007 3.57653 2.96 3.80811 4.80059 6.409.35789 13.30222 6.60089 13.30222 15.446v.61594h-.61593c-5.07247 0-9.70344 2.91728-12.38795 7.80329a18.11866 18.11866 0 0 0 .557 18.48717 26.06782 26.06782 0 0 1 3.597 19.93079l-2.31458 10.14193z" fill="#2f2e41" transform="translate(-207.41698 -196.12291)"/><path d="m431.59815 378.86464-16.26025-9.14648c-28.35449-19.65332-35.3389-35.26074-36.2119-44.89746-.93165-10.28223 4.54638-15.90625 4.78027-16.13965l.12646-.09277 14.65772-7.48926a14.75225 14.75225 0 0 1 20.57568 8.0957l13.55811 37.28809 15.03176-11.08692 6.41064-2.52636 5.17285-6.917 14.207-8.28613 10.5542 9.499-13.273 26.54493-7.374 1.87793-1.564 4.02832-.13916.08886z" fill="#2b6cb0" transform="translate(-207.41698 -196.12291)"/></svg>