<svg height="512" viewBox="0 0 135.46667 135.46662" width="512" xmlns="http://www.w3.org/2000/svg" xmlns:xlink="http://www.w3.org/1999/xlink"><linearGradient id="a" gradientUnits="userSpaceOnUse" x1="47.101685" x2="89.796066" y1="284.68878" y2="223.87637"><stop offset="0" stop-color="#ecc94b"/><stop offset="1" stop-color="#ecc94b" stop-opacity="0"/></linearGradient><linearGradient id="b" gradientUnits="userSpaceOnUse" x1="56.366501" x2="96.53891" y1="197.1868" y2="144.60211"><stop offset="0" stop-color="#2b6cb0"/><stop offset="1" stop-color="#2b6cb0" stop-opacity="0"/></linearGradient><g transform="translate(0 -161.5334)"><circle cx="68.035721" cy="229.34233" fill="#fff" r="67.73333"/><g fill="url(#a)" transform="matrix(.8779803 0 0 .93210128 5.479574 19.415634)"><ellipse cx="-45.568512" cy="248.9986" rx="34.776188" ry="45.523624" transform="matrix(.9532379 -.30222097 .38553648 .92269259 0 0)"/><ellipse cx="-176.93398" cy="205.97089" rx="34.776188" ry="45.523624" transform="matrix(-.9532379 -.30222097 -.38553648 .92269259 0 0)"/></g><g fill-rule="evenodd"><path d="m67.351921 206.93024c-44.901281 60.04655-22.45064 30.02327 0 0z" fill="#2b6cb0"/><path d="m44.449555 173.38854c-15.000947 31.63095 20.256533 35.65837 20.256533 35.65837zm0 0c37.55461 8.07113 20.256533 35.65837 20.256533 35.65837z" fill="url(#b)"/><path d="m52.633184 187.70825 13.985118 21.92262.09449 4.8192z" fill="#fff"/></g></g></svg>