<svg height="511.67482" viewBox="0 0 570 511.67482" width="570" xmlns="http://www.w3.org/2000/svg"><path d="m879.99927 389.83741a.99678.99678 0 0 1 -.5708-.1792l-276.55884-192.60352a5.01548 5.01548 0 0 0 -5.72852.00977l-274.56677 192.5918a1.00019 1.00019 0 0 1 -1.14868-1.6377l274.567-192.5918a7.02216 7.02216 0 0 1 8.02-.01318l276.55883 192.603a1.00019 1.00019 0 0 1 -.57226 1.8208z" fill="#3f3d56" transform="translate(-315 -194.16259)"/><path d="m23.264 202.502 262.012-194.183 264 208-250.5 148.5-136-31z" fill="#e6e6e6"/><g transform="translate(-315 -194.16259)"><path d="m489.25553 650.70367h-129.44031a6.04737 6.04737 0 1 1 0-12.09473h129.44031a6.04737 6.04737 0 1 1 0 12.09473z" fill="#2b6cb0"/><path d="m406.25553 624.70367h-46.44031a6.04737 6.04737 0 1 1 0-12.09473h46.44031a6.04737 6.04737 0 1 1 0 12.09473z" fill="#2b6cb0"/><path d="m603.96016 504.82207a7.56366 7.56366 0 0 1 -2.86914-.562l-161.59082-67.04884v-209.874a7.00817 7.00817 0 0 1 7-7h310a7.00818 7.00818 0 0 1 7 7v210.0205l-.30371.12989-156.28027 66.73972a7.61624 7.61624 0 0 1 -2.95606.59473z" fill="#fff"/><path d="m603.96016 505.32158a8.07177 8.07177 0 0 1 -3.05957-.59863l-161.90039-67.17774v-210.208a7.50851 7.50851 0 0 1 7.5-7.5h310a7.50851 7.50851 0 0 1 7.5 7.5v210.35058l-156.8877 66.999a8.10957 8.10957 0 0 1 -3.15234.63479zm-162.96-69.1123 160.66309 66.66455a6.1182 6.1182 0 0 0 4.668-.02784l155.669-66.47851v-209.03027a5.50653 5.50653 0 0 0 -5.5-5.5h-310a5.50653 5.50653 0 0 0 -5.5 5.5z" fill="#3f3d56"/><path d="m878 387.83741h-.2002l-114.7998 49.02002-157.06982 67.07a5.06614 5.06614 0 0 1 -3.88038.02l-162.0498-67.23002-117.62012-48.8-.17968-.08h-.2002a7.00778 7.00778 0 0 0 -7 7v304a7.00779 7.00779 0 0 0 7 7h556a7.00779 7.00779 0 0 0 7-7v-304a7.00778 7.00778 0 0 0 -7-7zm5 311a5.002 5.002 0 0 1 -5 5h-556a5.002 5.002 0 0 1 -5-5v-304a5.01106 5.01106 0 0 1 4.81006-5l118.18994 49.03998 161.28027 66.92a7.12081 7.12081 0 0 0 5.43994-.03l156.27979-66.73998 115.2002-49.19a5.01621 5.01621 0 0 1 4.7998 5z" fill="#3f3d56"/><path d="m602.345 445.30958a27.49862 27.49862 0 0 1 -16.5459-5.4961l-.2959-.22217-62.311-47.70752a27.68337 27.68337 0 1 1 33.67407-43.94921l40.36035 30.94775 95.37793-124.38672a27.68235 27.68235 0 0 1 38.81323-5.12353l-.593.80517.6084-.79346a27.71447 27.71447 0 0 1 5.12353 38.81348l-112.18733 146.30859a27.69447 27.69447 0 0 1 -22.02438 10.80372z" fill="#2b6cb0"/></g></svg>