<svg height="576.53301" viewBox="0 0 884.7058 576.53301" width="884.7058" xmlns="http://www.w3.org/2000/svg"><ellipse cx="763.62849" cy="564.53301" fill="#e6e6e6" rx="121.07731" ry="12"/><ellipse cx="74.9902" cy="559" fill="#e6e6e6" rx="43.3627" ry="6"/><path d="m0 0h567.57144v284.75098h-567.57144z" fill="#e6e6e6"/><path d="m26.06195 23.16618h515.44754v238.41862h-515.44754z" fill="#fff"/><path d="m26.744 262.267-1.365-1.365 69.216-69.215 21.719 21.718 38.127-38.128 46.815 46.815 79.634-79.634 36.197 36.198 79.151-79.152 44.402 44.402 81.364-81.364 1.365 1.365-82.729 82.729-44.402-44.402-79.151 79.151-36.197-36.197-79.634 79.634-46.815-46.815-38.127 38.128-21.719-21.719z" fill="#2b6cb0"/><circle cx="396.72086" cy="102.3173" fill="#2b6cb0" r="11.58309"/><circle cx="155.40647" cy="177.60739" fill="#2b6cb0" r="11.58309"/><circle cx="317.56974" cy="178.57265" fill="#2b6cb0" r="11.58309"/><circle cx="204.6346" cy="222.00924" fill="#2b6cb0" r="11.58309"/><circle cx="278.95943" cy="145.75389" fill="#2b6cb0" r="11.58309"/><circle cx="440.15745" cy="145.75389" fill="#2b6cb0" r="11.58309"/><g transform="translate(-157.6471 -161.73349)"><path d="m219.01394 691.24065c4.7 17.37388 20.79839 28.134 20.79839 28.134s8.47828-17.40854 3.77832-34.78242-20.79838-28.134-20.79838-28.134-8.47827 17.40854-3.77833 34.78242z" fill="#e6e6e6"/><path d="m225.9202 687.50682c12.89676 12.55447 14.472 31.85362 14.472 31.85362s-19.33453-1.05567-32.23129-13.61015-14.472-31.85362-14.472-31.85362 19.33453 1.05567 32.23129 13.61015z" fill="#2b6cb0"/><path d="m880.63206 295.92979 7.38726 73.05167h60.7943l-2.92207-111.03854c0-23.90017-16.52223-44.805-40.42192-44.805s-39.44791 19.93084-39.44791 43.831l-3.89609 112.01256h9.9121z" fill="#2f2e41"/><path d="m916.96859 679.01334s-2.624 16.61862-6.99731 19.24261 22.74127 8.74664 22.74127 8.74664l4.37332-26.23992z" fill="#fbbebe"/><path d="m949.33117 489.2112 9.62131 11.37064-4.37332 39.35989-3.49866 77.84511s6.99731 67.34915 0 69.09848-38.48523.87466-37.61056-3.49866 1.74933-7.872 3.49865-13.99463-1.74932-27.98925-1.74932-27.98925l4.37332-24.4906-15.744-105.83437z" fill="#2f2e41"/><path d="m917.84326 695.632s-9.62131-1.74933-10.496 0-17.49326 20.11723-20.11726 20.11723-21.8666 17.49329-1.74933 18.36795 53.35452-14.86929 53.35452-14.86929-4.89134-22.25712-4.63233-21.1872-16.3596 1.94459-16.3596-2.42869z" fill="#2f2e41"/><path d="m907.34729 655.3974s24.4906 27.11459 25.36526 29.73859 13.99463 0 13.99463 0l5.248-17.49329-4.37332-6.12265-24.4906-20.11727z" fill="#fbbebe"/><path d="m942.33386 675.51468-12.68263 11.93752s16.18128 24.79838 16.18128 27.42237.87467 24.4906 9.62131 20.99194 9.62131-38.48522 9.62131-38.48522-.87467-35.86124-6.12265-38.48523-16.75024-1.795-16.75024-1.795 7.12893 17.53894.13162 18.41362z" fill="#2f2e41"/><path d="m869.73673 411.36609s-4.37332 13.99463-5.248 17.49328-6.12265 13.12-6.12265 27.98926 1.74933 32.36257 0 34.1119-29.73858 99.71172-17.49328 110.20769 52.47985 45.48254 55.10384 49.85586 3.49866 14.86929 8.74665 13.12 25.36526-19.24262 26.23992-22.74127-11.37063-9.62131-11.37063-9.62131-24.4906-35.86123-30.61325-34.98657-5.248-4.37332-4.37332-6.99731 2.624-4.37332 0-4.37332-.87467-6.99732 0-10.496 20.99199-50.73053 20.99199-50.73053l53.35452-23.61593s-2.624-63.85049-21.86661-81.34377l-4.37332-10.496s-48.98124-3.49863-62.97586 2.62402z" fill="#2f2e41"/><path d="m891.60333 273.16914s4.37332 30.61325-6.12265 32.36258-19.24261.87466-19.24261 1.74933 26.23993 27.98925 26.23993 27.98925l24.49059-1.74933 21.86661-23.61597s-20.11728-3.49866-20.11728-15.744-.87466-20.99194-.87466-20.99194z" fill="#ffb8b8"/></g><circle cx="747.51353" cy="97.00369" fill="#ffb8b8" r="27.11459"/><path d="m889.33645 303.305s-42.341 3.97608-44.965 15.34671 17.49329 82.21844 20.11728 88.34109 1.74933 10.496 1.74933 10.496a34.60715 34.60715 0 0 1 27.98925-6.12265c16.61862 3.49866 40.23456 1.74933 40.23456 1.74933s7.872-32.36258 9.6213-35.86124 8.74665-22.74127 8.74665-27.98925 10.496-27.11459 10.496-27.11459-5.248-15.744-24.4906-14.86929c0 0-8.39344-3.75674-10.7567-1.00371s-15.48323 14.99833-32.10185 9.75035-6.64022-12.72275-6.64022-12.72275z" fill="#e6e6e6" transform="translate(-157.6471 -161.73349)"/><path d="m946.70718 317.777 16.61862 4.37332s12.2453 44.60787 13.12 45.48254 1.74933 6.12265 1.74933 6.12265 0 .87466 1.74933 3.49865 4.37332.87467 2.624 4.37333-4.37332 1.74932-2.624 5.248.87466 13.12.87466 13.12-4.37332-16.61862-20.11728-12.2453l-10.496-47.23186z" fill="#e6e6e6" transform="translate(-157.6471 -161.73349)"/><path d="m794.553 164.416-.06.2-28.81 90.76-18.91-4.2-20.45-4.539 28.87-93.591z" fill="#2b6cb0"/><path d="m861.29282 317.777-16.61862 4.37332s-12.2453 44.60787-13.12 45.48254-1.74933 6.12265-1.74933 6.12265 0 .87466-1.74933 3.49865-4.37332.87467-2.624 4.37333 4.37332 1.74932 2.624 5.248-.87466 13.12-.87466 13.12 4.37332-16.61862 20.11728-12.2453l10.496-47.23186z" fill="#e6e6e6" transform="translate(-157.6471 -161.73349)"/><path d="m832.4289 385.12616-5.46422 9.13177s-2.40775 17.10816 9.83754 17.10816 29.73859-16.61862 29.73859-16.61862 8.74664-3.49866 13.99463-2.624 34.1119 0 21.8666-14.8693-33.23724 0-33.23724 0l-21.8666 10.496-11.37064-6.12264z" fill="#ffb8b8" transform="translate(-157.6471 -161.73349)"/><path d="m839.86355 373.3182 8.74664 13.99462s-20.11728 2.624-21.8666 6.99732 7.872-22.74127 7.872-22.74127z" fill="#e6e6e6" transform="translate(-157.6471 -161.73349)"/><path d="m882.5801 249.17672c17.61432-9.49644 24.85-9.09431 46.75307 0l5.84413-14.23842a10.12353 10.12353 0 0 0 -10.11213-10.11214h-39.19108a10.12353 10.12353 0 0 0 -10.11209 10.11214z" fill="#2f2e41" transform="translate(-157.6471 -161.73349)"/><path d="m794.493 164.616-28.81 90.76-18.91-4.2 28.42-92.13z" opacity=".2"/><path d="m781.188 159.044-28.864 93.589 39.36 8.746 28.864-90.965z" fill="#2b6cb0"/><path d="m975.5711 385.12616 5.46422 9.13177s2.40775 17.10816-9.83754 17.10816-29.73859-16.61862-29.73859-16.61862-8.74664-3.49866-13.99463-2.624-34.1119 0-21.8666-14.8693 33.23724 0 33.23724 0l21.8666 10.496 11.37064-6.12264z" fill="#ffb8b8" transform="translate(-157.6471 -161.73349)"/><path d="m968.13645 373.3182-8.74664 13.99462s20.11728 2.624 21.8666 6.99732-7.872-22.74127-7.872-22.74127z" fill="#e6e6e6" transform="translate(-157.6471 -161.73349)"/></svg>